<svg width="88" height="88" viewBox="0 0 88 88" fill="none" xmlns="http://www.w3.org/2000/svg">
<path d="M77.0833 41.6667H70.8333V25C70.8333 22.7899 69.9554 20.6702 68.3926 19.1074C66.8298 17.5446 64.7101 16.6667 62.5 16.6667H45.8333V10.4167C45.8333 7.65399 44.7359 5.00447 42.7824 3.05097C40.8289 1.09747 38.1793 0 35.4167 0C32.654 0 30.0045 1.09747 28.051 3.05097C26.0975 5.00447 25 7.65399 25 10.4167V16.6667H8.33333C6.1232 16.6667 4.00358 17.5446 2.44078 19.1074C0.877973 20.6702 0 22.7899 0 25V40.8333H6.25C12.5 40.8333 17.5 45.8333 17.5 52.0833C17.5 58.3333 12.5 63.3333 6.25 63.3333H0V79.1667C0 81.3768 0.877973 83.4964 2.44078 85.0592C4.00358 86.622 6.1232 87.5 8.33333 87.5H24.1667V81.25C24.1667 75 29.1667 70 35.4167 70C41.6667 70 46.6667 75 46.6667 81.25V87.5H62.5C64.7101 87.5 66.8298 86.622 68.3926 85.0592C69.9554 83.4964 70.8333 81.3768 70.8333 79.1667V62.5H77.0833C79.846 62.5 82.4955 61.4025 84.449 59.449C86.4025 57.4955 87.5 54.846 87.5 52.0833C87.5 49.3207 86.4025 46.6711 84.449 44.7176C82.4955 42.7641 79.846 41.6667 77.0833 41.6667Z" fill="#00FF55"/>
</svg>
